<?xml version="1.0" encoding="UTF-8" standalone="no"?>
<svg
   width="931.0614"
   height="281.74268"
   overflow="hidden"
   version="1.1"
   id="svg27"
   sodipodi:docname="synthorus_artwork.svg"
   inkscape:version="1.4.2 (f4327f4, 2025-05-13)"
   xmlns:inkscape="http://www.inkscape.org/namespaces/inkscape"
   xmlns:sodipodi="http://sodipodi.sourceforge.net/DTD/sodipodi-0.dtd"
   xmlns="http://www.w3.org/2000/svg"
   xmlns:svg="http://www.w3.org/2000/svg">
  <defs
     id="defs27" />
  <sodipodi:namedview
     id="namedview27"
     pagecolor="#ffffff"
     bordercolor="#000000"
     borderopacity="0.25"
     inkscape:showpageshadow="2"
     inkscape:pageopacity="0.0"
     inkscape:pagecheckerboard="0"
     inkscape:deskcolor="#d1d1d1"
     inkscape:zoom="0.8396893"
     inkscape:cx="398.36163"
     inkscape:cy="87.532376"
     inkscape:window-width="1920"
     inkscape:window-height="1017"
     inkscape:window-x="1912"
     inkscape:window-y="-8"
     inkscape:window-maximized="1"
     inkscape:current-layer="svg27" />
  <g
     id="g27"
     transform="translate(-142.91,-235.8015)">
    <rect
       x="142.91"
       y="235.8015"
       width="931.0614"
       height="281.74268"
       fill="#ffffff"
       id="rect1"
       style="stroke-width:0.533512" />
    <path
       d="m 742.5,425.134 c 0,-3.112 2.522,-5.634 5.634,-5.634 h 18.732 c 3.112,0 5.634,2.522 5.634,5.634 v 9.732 c 0,3.112 -2.522,5.634 -5.634,5.634 h -18.732 c -3.112,0 -5.634,-2.522 -5.634,-5.634 z"
       stroke="#000000"
       stroke-width="1.33333"
       stroke-miterlimit="8"
       fill="#f2f2f2"
       fill-rule="evenodd"
       id="path1" />
    <path
       d="m 742.5,431.463 c 0,-3.846 3.117,-6.963 6.963,-6.963 h 103.074 c 3.846,0 6.963,3.117 6.963,6.963 v 55.074 c 0,3.846 -3.117,6.963 -6.963,6.963 H 749.463 c -3.846,0 -6.963,-3.117 -6.963,-6.963 z"
       stroke="#000000"
       stroke-width="1.33333"
       stroke-miterlimit="8"
       fill="#f2f2f2"
       fill-rule="evenodd"
       id="path2" />
    <text
       font-family="'Times New Roman', 'Times New Roman_MSFontService', sans-serif"
       font-weight="400"
       font-size="16px"
       transform="translate(762.704,454)"
       id="text2">privacy and</text>
    <text
       font-family="'Times New Roman', 'Times New Roman_MSFontService', sans-serif"
       font-weight="400"
       font-size="16px"
       transform="translate(756.87,474)"
       id="text3">utility reports</text>
    <path
       d="m 700.013,457 34.586,0.438 -0.025,2 L 699.987,459 Z m 33.291,-2.579 7.949,4.101 -8.05,3.899 z"
       id="path3" />
    <path
       d="m 159.5,433.167 c 0,-6.996 26.191,-12.667 58.5,-12.667 32.309,0 58.5,5.671 58.5,12.667 v 50.666 c 0,6.996 -26.191,12.667 -58.5,12.667 -32.309,0 -58.5,-5.671 -58.5,-12.667 z"
       fill="#ffffff"
       fill-rule="evenodd"
       id="path4" />
    <path
       d="m 276.5,433.167 c 0,6.995 -26.191,12.666 -58.5,12.666 -32.309,0 -58.5,-5.671 -58.5,-12.666"
       stroke="#000000"
       stroke-width="1.33333"
       stroke-miterlimit="8"
       fill="none"
       fill-rule="evenodd"
       id="path5" />
    <path
       d="m 159.5,433.167 c 0,-6.996 26.191,-12.667 58.5,-12.667 32.309,0 58.5,5.671 58.5,12.667 v 50.666 c 0,6.996 -26.191,12.667 -58.5,12.667 -32.309,0 -58.5,-5.671 -58.5,-12.667 z"
       stroke="#000000"
       stroke-width="1.33333"
       stroke-miterlimit="8"
       fill="none"
       fill-rule="evenodd"
       id="path6" />
    <text
       font-family="'Times New Roman', 'Times New Roman_MSFontService', sans-serif"
       font-weight="400"
       font-size="16px"
       transform="translate(172.088,469)"
       id="text6">reference data</text>
    <path
       d="m 159.5,248.5 h 117 v 63.333 L 263.833,324.5 H 159.5 Z"
       fill="#ffffff"
       fill-rule="evenodd"
       id="path7" />
    <path
       d="m 263.833,324.5 2.534,-10.133 10.133,-2.534 z"
       fill="#cdcdcd"
       fill-rule="evenodd"
       id="path8" />
    <path
       d="m 263.833,324.5 2.534,-10.133 10.133,-2.534 -12.667,12.667 H 159.5 v -76 h 117 v 63.333"
       stroke="#000000"
       stroke-width="1.33333"
       stroke-miterlimit="8"
       fill="none"
       fill-rule="evenodd"
       id="path9" />
    <text
       font-family="'Times New Roman', 'Times New Roman_MSFontService', sans-serif"
       font-weight="400"
       font-size="16px"
       transform="translate(197.338,276)"
       id="text9">model</text>
    <text
       font-family="'Times New Roman', 'Times New Roman_MSFontService', sans-serif"
       font-weight="400"
       font-size="16px"
       transform="translate(176.338,296)"
       id="text10">specification</text>
    <path
       d="m 276,285 h 65.704 v 43.016 h -2 V 286 l 1,1 H 276 Z m 68.704,41.683 -4,8 -4,-8 z"
       id="path10" />
    <path
       d="m 583.5,261.334 c 0,-7.088 5.746,-12.834 12.834,-12.834 h 91.333 c 7.087,0 12.833,5.746 12.833,12.834 v 51.333 c 0,7.087 -5.746,12.833 -12.833,12.833 h -91.333 c -7.088,0 -12.834,-5.746 -12.834,-12.833 z"
       stroke="#000000"
       stroke-width="1.33333"
       stroke-miterlimit="8"
       fill="#ffffff"
       fill-rule="evenodd"
       id="path11" />
    <text
       font-family="'Times New Roman', 'Times New Roman_MSFontService', sans-serif"
       font-weight="400"
       font-size="16px"
       transform="translate(624.08,282)"
       id="text11">make</text>
    <text
       font-family="'Times New Roman', 'Times New Roman_MSFontService', sans-serif"
       font-weight="400"
       font-size="16px"
       transform="translate(611.16,302)"
       id="text12">simulator</text>
    <path
       d="m 718.5,325.5 19.25,-77 h 91.75 l -19.25,77 z"
       stroke="#000000"
       stroke-width="1.33333"
       stroke-miterlimit="8"
       fill="#ffffff"
       fill-rule="evenodd"
       id="path12" />
    <text
       font-family="'Times New Roman', 'Times New Roman_MSFontService', sans-serif"
       font-weight="400"
       font-size="16px"
       transform="translate(743.001,292)"
       id="text13">simulator</text>
    <path
       d="m 700,285 h 20.295 v 2 H 700 Z m 18.962,-3 8,4 -8,4 z"
       id="path13" />
    <path
       d="m 849.5,261.334 c 0,-7.088 5.746,-12.834 12.834,-12.834 h 74.333 c 7.087,0 12.833,5.746 12.833,12.834 v 51.333 c 0,7.087 -5.746,12.833 -12.833,12.833 h -74.333 c -7.088,0 -12.834,-5.746 -12.834,-12.833 z"
       stroke="#000000"
       stroke-width="1.33333"
       stroke-miterlimit="8"
       fill="#ffffff"
       fill-rule="evenodd"
       id="path14" />
    <text
       font-family="'Times New Roman', 'Times New Roman_MSFontService', sans-serif"
       font-weight="400"
       font-size="16px"
       transform="translate(888.51,282)"
       id="text14">run</text>
    <text
       font-family="'Times New Roman', 'Times New Roman_MSFontService', sans-serif"
       font-weight="400"
       font-size="16px"
       transform="translate(868.843,302)"
       id="text15">simulator</text>
    <path
       d="m 819,285 h 23.377 v 2 H 819 Z m 22.043,-3 8,4 -8,4 z"
       id="path15" />
    <path
       d="m 976.5,261.5 c 0,-7.18 18.804,-13 42,-13 23.2,0 42,5.82 42,13 v 52 c 0,7.18 -18.8,13 -42,13 -23.196,0 -42,-5.82 -42,-13 z"
       fill="#ffffff"
       fill-rule="evenodd"
       id="path16" />
    <path
       d="m 1060.5,261.5 c 0,7.18 -18.8,13 -42,13 -23.196,0 -42,-5.82 -42,-13"
       stroke="#000000"
       stroke-width="1.33333"
       stroke-miterlimit="8"
       fill="none"
       fill-rule="evenodd"
       id="path17" />
    <path
       d="m 976.5,261.5 c 0,-7.18 18.804,-13 42,-13 23.2,0 42,5.82 42,13 v 52 c 0,7.18 -18.8,13 -42,13 -23.196,0 -42,-5.82 -42,-13 z"
       stroke="#000000"
       stroke-width="1.33333"
       stroke-miterlimit="8"
       fill="none"
       fill-rule="evenodd"
       id="path18" />
    <text
       font-family="'Times New Roman', 'Times New Roman_MSFontService', sans-serif"
       font-weight="400"
       font-size="16px"
       transform="translate(988.816,289)"
       id="text18">synthetic</text>
    <text
       font-family="'Times New Roman', 'Times New Roman_MSFontService', sans-serif"
       font-weight="400"
       font-size="16px"
       transform="translate(1004.4,309)"
       id="text19">data</text>
    <path
       d="m 949.019,285 20.243,0.376 -0.037,2 L 948.981,287 Z m 18.966,-2.648 7.924,4.148 -8.073,3.851 z"
       id="path19" />
    <path
       d="m 0,-1 h 20.3772 v 88.1428 l -1,-1 h 12.7105 v 2 H 18.3772 V 0 l 1,1 H 0 Z m 30.7543,84.1428 8,4 -8,4 z"
       transform="matrix(1,0,0,-1,544,373.143)"
       id="path20" />
    <path
       d="m 583.5,433.167 c 0,-6.996 5.671,-12.667 12.667,-12.667 h 91.666 c 6.996,0 12.667,5.671 12.667,12.667 v 50.666 c 0,6.996 -5.671,12.667 -12.667,12.667 h -91.666 c -6.996,0 -12.667,-5.671 -12.667,-12.667 z"
       stroke="#000000"
       stroke-width="1.33333"
       stroke-miterlimit="8"
       fill="#ffffff"
       fill-rule="evenodd"
       id="path21" />
    <text
       font-family="'Times New Roman', 'Times New Roman_MSFontService', sans-serif"
       font-weight="400"
       font-size="16px"
       transform="translate(624.076,454)"
       id="text21">make</text>
    <text
       font-family="'Times New Roman', 'Times New Roman_MSFontService', sans-serif"
       font-weight="400"
       font-size="16px"
       transform="translate(619.243,474)"
       id="text22">reports</text>
    <path
       d="m 544,373 h 20.377 v 85.241 l -1,-1 h 12.711 v 2 H 562.377 V 374 l 1,1 H 544 Z m 30.754,81.241 8,4 -8,4 z"
       id="path22" />
    <path
       d="m 282.5,348.167 c 0,-6.996 5.671,-12.667 12.667,-12.667 h 92.666 c 6.996,0 12.667,5.671 12.667,12.667 v 50.666 c 0,6.996 -5.671,12.667 -12.667,12.667 h -92.666 c -6.996,0 -12.667,-5.671 -12.667,-12.667 z"
       stroke="#000000"
       stroke-width="1.33333"
       stroke-miterlimit="8"
       fill="#ffffff"
       fill-rule="evenodd"
       id="path23" />
    <text
       font-family="'Times New Roman', 'Times New Roman_MSFontService', sans-serif"
       font-weight="400"
       font-size="16px"
       transform="translate(323.521,369)"
       id="text23">make</text>
    <text
       font-family="'Times New Roman', 'Times New Roman_MSFontService', sans-serif"
       font-weight="400"
       font-size="16px"
       transform="translate(320.854,389)"
       id="text24">model</text>
    <path
       d="m 0,-1 h 65.7041 v 40.6021 h -2 V 0 l 1,1 H 0 Z m 68.7041,39.2688 -4,8 -4,-8 z"
       transform="matrix(1,0,0,-1,276,457.269)"
       id="path24" />
    <path
       d="m 426.5,340.134 c 0,-3.112 2.522,-5.634 5.634,-5.634 h 18.732 c 3.112,0 5.634,2.522 5.634,5.634 v 9.732 c 0,3.112 -2.522,5.634 -5.634,5.634 h -18.732 c -3.112,0 -5.634,-2.522 -5.634,-5.634 z"
       stroke="#000000"
       stroke-width="1.33333"
       stroke-miterlimit="8"
       fill="#f2f2f2"
       fill-rule="evenodd"
       id="path25" />
    <path
       d="m 426.5,346.463 c 0,-3.846 3.117,-6.963 6.963,-6.963 h 104.074 c 3.846,0 6.963,3.117 6.963,6.963 v 55.074 c 0,3.846 -3.117,6.963 -6.963,6.963 H 433.463 c -3.846,0 -6.963,-3.117 -6.963,-6.963 z"
       stroke="#000000"
       stroke-width="1.33333"
       stroke-miterlimit="8"
       fill="#f2f2f2"
       fill-rule="evenodd"
       id="path26" />
    <text
       font-family="'Times New Roman', 'Times New Roman_MSFontService', sans-serif"
       font-weight="400"
       font-size="16px"
       transform="translate(465.031,369)"
       id="text26">model</text>
    <text
       font-family="'Times New Roman', 'Times New Roman_MSFontService', sans-serif"
       font-weight="400"
       font-size="16px"
       transform="translate(453.864,389)"
       id="text27">definition</text>
    <path
       d="m 400.018,372 19.887,0.365 -0.037,2 L 399.982,374 Z m 18.609,-2.659 7.925,4.147 -8.072,3.852 z"
       id="path27" />
  </g>
</svg>
